<svg width="28" height="28" viewBox="0 0 28 28" fill="none" xmlns="http://www.w3.org/2000/svg">
<rect width="28" height="28" rx="14" fill="#C2BCB2"/>
<path d="M8.44746 7.88818C8.44703 7.88818 8.44654 7.88818 8.44611 7.88818C8.29478 7.88818 8.15245 7.94717 8.04498 8.05438C7.93632 8.16277 7.87646 8.30709 7.87646 8.46074V17.0461C7.87646 17.3609 8.1336 17.6177 8.44972 17.6185C9.78241 17.6217 12.0152 17.8994 13.5555 19.5113V10.5265C13.5555 10.4198 13.5283 10.3195 13.4768 10.2366C12.2126 8.20064 9.78316 7.89131 8.44746 7.88818Z" fill="#171516"/>
<path d="M20.1236 17.0461V8.46074C20.1236 8.30709 20.0637 8.16277 19.9551 8.05438C19.8476 7.94717 19.7051 7.88818 19.554 7.88818C19.5535 7.88818 19.553 7.88818 19.5526 7.88818C18.2169 7.89136 15.7875 8.2007 14.5232 10.2366C14.4718 10.3196 14.4446 10.4199 14.4446 10.5266V19.5113C15.9849 17.8994 18.2177 17.6217 19.5504 17.6185C19.8664 17.6177 20.1236 17.3609 20.1236 17.0461Z" fill="#171516"/>
<path d="M21.4275 9.86816H21.0123V17.0462C21.0123 17.85 20.3574 18.5054 19.5523 18.5074C18.4219 18.5101 16.5581 18.7312 15.238 19.9805C17.521 19.4215 19.9277 19.7849 21.2993 20.0975C21.4706 20.1365 21.6475 20.0962 21.7848 19.9868C21.9215 19.8777 21.9999 19.7147 21.9999 19.5396V10.4406C22 10.125 21.7431 9.86816 21.4275 9.86816Z" fill="#171516"/>
<path d="M6.98759 17.0462V9.86816H6.57245C6.25686 9.86816 6 10.125 6 10.4406V19.5395C6 19.7146 6.07844 19.8776 6.21517 19.9867C6.35227 20.096 6.52908 20.1364 6.70061 20.0973C8.0722 19.7847 10.4789 19.4214 12.7618 19.9804C11.4419 18.7311 9.57798 18.5101 8.44758 18.5074C7.64256 18.5054 6.98759 17.85 6.98759 17.0462Z" fill="#171516"/>
</svg>
