<svg width="28" height="28" viewBox="0 0 28 28" fill="none" xmlns="http://www.w3.org/2000/svg">
<rect width="28" height="28" rx="14" fill="#C2BCB2"/>
<path d="M15.0654 15.9429C15.1384 15.9047 15.2063 15.8364 15.2022 15.8375C17.2413 15.2759 18.75 13.3197 18.75 11C18.75 9.43687 17.7662 6.4675 17.7244 6.34187C17.6912 6.24233 17.6275 6.15575 17.5424 6.09439C17.4572 6.03304 17.3549 6.00002 17.25 6H10.75C10.5347 6 10.3438 6.13781 10.2756 6.34187C10.2338 6.4675 9.25 9.43687 9.25 11C9.25 13.3973 10.8623 15.3357 12.7984 15.8377C12.8374 15.8804 12.8834 15.916 12.9346 15.9429C13.1054 16.032 13.2484 16.1663 13.3481 16.3311C13.4478 16.4959 13.5003 16.6849 13.5 16.8775V20C13.5 20.5514 13.0514 21 12.5 21H11.5C11.2238 21 11 21.2239 11 21.5C11 21.7761 11.2238 22 11.5 22H16.5C16.7762 22 17 21.7761 17 21.5C17 21.2239 16.7762 21 16.5 21H15.5C14.9486 21 14.5 20.5514 14.5 20V16.8775C14.4997 16.6849 14.5522 16.4959 14.6519 16.3311C14.7516 16.1663 14.8946 16.032 15.0654 15.9429ZM10.25 11C10.25 9.94547 10.8016 8.00078 11.115 7H16.885C17.1966 7.99775 17.7031 9.78816 17.7459 10.8372C17.8553 13.0399 16.1618 15 14 15C11.9322 15 10.25 13.2056 10.25 11Z" fill="#171516"/>
<path d="M16.75 11C16.75 10.4356 16.525 9.33031 16.1419 8H11.8578C11.475 9.32906 11.25 10.4347 11.25 11C11.25 12.6541 12.4837 14 14 14C15.5163 14 16.75 12.6541 16.75 11Z" fill="#171516"/>
</svg>
