<svg width="28" height="28" viewBox="0 0 28 28" fill="none" xmlns="http://www.w3.org/2000/svg">
<rect width="28" height="28" rx="14" fill="#C2BCB2"/>
<path fill-rule="evenodd" clip-rule="evenodd" d="M16.8334 10.6666C16.8334 10.9426 16.6094 11.1666 16.3334 11.1666C16.0574 11.1666 15.8334 10.9426 15.8334 10.6666V9.66659C15.8334 8.65392 15.0127 7.83325 14.0001 7.83325C12.9874 7.83325 12.1667 8.65392 12.1667 9.66659V10.6666C12.1667 10.9426 11.9427 11.1666 11.6667 11.1666C11.3907 11.1666 11.1667 10.9426 11.1667 10.6666V9.66659C11.1667 8.10192 12.4354 6.83325 14.0001 6.83325C15.5647 6.83325 16.8334 8.10192 16.8334 9.66659V10.6666Z" fill="#171516"/>
<path fill-rule="evenodd" clip-rule="evenodd" d="M18.8948 11.5665L19.4281 18.5665C19.4554 18.9812 19.3101 19.3878 19.0268 19.6912C18.7428 19.9945 18.3461 20.1665 17.9314 20.1665H10.0688C9.65411 20.1665 9.25744 19.9945 8.97344 19.6912C8.69011 19.3878 8.54478 18.9812 8.57211 18.5665L9.10544 11.5665C9.15811 10.7785 9.81278 10.1665 10.6021 10.1665H17.3981C18.1874 10.1665 18.8421 10.7785 18.8948 11.5665ZM15.6574 13.1185C15.3628 13.7378 14.7314 14.1665 14.0001 14.1665C13.2688 14.1665 12.6374 13.7378 12.3428 13.1185C12.2248 12.8692 11.9261 12.7632 11.6768 12.8818C11.4274 12.9998 11.3214 13.2985 11.4394 13.5478C11.8941 14.5052 12.8701 15.1665 14.0001 15.1665C15.1301 15.1665 16.1061 14.5052 16.5608 13.5478C16.6788 13.2985 16.5728 12.9998 16.3234 12.8818C16.0741 12.7632 15.7754 12.8692 15.6574 13.1185Z" fill="#171516"/>
</svg>
