<svg width="28" height="28" viewBox="0 0 28 28" fill="none" xmlns="http://www.w3.org/2000/svg">
<rect width="28" height="28" rx="14" fill="#C2BCB2"/>
<path d="M20 17.3335C20 17.3335 18.9333 16.7335 17.6 15.6002C18.6667 15.2002 19.3333 14.6668 19.3333 14.6668C19.3333 14.6668 17.8 13.8002 16.2667 12.2668C17.3333 11.8668 18 11.3335 18 11.3335C18 11.3335 15.4 9.86683 14 7.3335C12.6 9.86683 10 11.3335 10 11.3335C10 11.3335 10.6667 11.8668 11.7333 12.2668C10.2 13.8002 8.66667 14.6668 8.66667 14.6668C8.66667 14.6668 9.33333 15.2002 10.4 15.6668C9.06667 16.7335 8 17.3335 8 17.3335C8 17.3335 10.1333 19.0668 13.3333 19.2668V20.6668H14.6667V19.2668C17.8667 19.0668 20 17.3335 20 17.3335Z" fill="#171516"/>
</svg>
