<svg width="28" height="28" viewBox="0 0 28 28" fill="none" xmlns="http://www.w3.org/2000/svg">
<rect width="28" height="28" rx="14" fill="#C2BCB2"/>
<g clip-path="url(#clip0_64_122)">
<path d="M13.4286 6C13.1153 6 12.862 6.25567 12.862 6.57133H12.8573V11.1433C12.8573 11.2949 12.7971 11.4403 12.6899 11.5474C12.5827 11.6546 12.4374 11.7148 12.2858 11.7148C12.1342 11.7148 11.9889 11.6546 11.8817 11.5474C11.7745 11.4403 11.7143 11.2949 11.7143 11.1433V6.57133H11.71C11.71 6.25567 11.456 6 11.143 6C10.8296 6 10.576 6.25567 10.576 6.57133H10.5716V11.1433C10.5716 11.2949 10.5114 11.4403 10.4043 11.5474C10.2971 11.6546 10.1517 11.7148 10.0001 11.7148C9.84857 11.7148 9.70321 11.6546 9.59603 11.5474C9.48886 11.4403 9.42864 11.2949 9.42864 11.1433V6.57133C9.42864 6.25567 9.17464 6 8.86198 6C8.54864 6 8.29464 6.25567 8.29464 6.57133H8.28564V12.2857C8.28564 12.9887 8.99098 13.5927 9.99998 13.8573V20.8573C10.0051 21.1571 10.1278 21.4428 10.3415 21.6529C10.5553 21.8631 10.843 21.9808 11.1428 21.9808C11.4426 21.9808 11.7303 21.8631 11.9441 21.6529C12.1579 21.4428 12.2805 21.1571 12.2856 20.8573V13.8573C13.2946 13.5927 14 12.9887 14 12.2857V6.57133H13.9956C13.9956 6.25567 13.7416 6 13.4286 6ZM19.4286 6C17.3773 6 15.7146 9.58167 15.7146 14C15.7146 14.388 15.7273 14.7697 15.7523 15.143H17.429V20.8567C17.4341 21.1564 17.5568 21.4421 17.7705 21.6522C17.9843 21.8624 18.272 21.9801 18.5718 21.9801C18.8716 21.9801 19.1593 21.8624 19.3731 21.6522C19.5869 21.4421 19.7095 21.1564 19.7146 20.8567V6.02333C19.6201 6.00781 19.5245 6 19.4286 6Z" fill="#171516"/>
</g>
<defs>
<clipPath id="clip0_64_122">
<rect width="16" height="16" fill="white" transform="translate(6 6)"/>
</clipPath>
</defs>
</svg>
