<svg width="28" height="28" viewBox="0 0 28 28" fill="none" xmlns="http://www.w3.org/2000/svg">
<rect width="28" height="28" rx="14" fill="#C2BCB2"/>
<g clip-path="url(#clip0_64_189)">
<path d="M14 10.6875C15.2944 10.6875 16.3438 9.63817 16.3438 8.34375C16.3438 7.04933 15.2944 6 14 6C12.7056 6 11.6562 7.04933 11.6562 8.34375C11.6562 9.63817 12.7056 10.6875 14 10.6875Z" fill="#171516"/>
<path d="M21.0312 20.125C21.0312 19.0918 20.1931 18.2509 19.1324 18.2509H19.1302C18.3785 18.2999 14.3191 20.2921 12.8062 21.1202L11.1985 22H19.1562C20.1903 22 21.0312 21.1591 21.0312 20.125ZM20.8554 16.4775C19.4313 15.3386 19.0043 14.0456 18.6875 12.4272C18.6875 11.4664 17.9086 10.6875 16.9478 10.6875H11.0522C10.0914 10.6875 9.3125 11.4664 9.3125 12.4272C9.00522 13.997 8.60966 15.3059 7.1445 16.4776L6 17.3125H7.4375C8.98016 17.3125 10.5127 16.5732 11.5015 15.4233L12.025 18.4962C12.7155 18.8171 13.4046 19.1546 13.9985 19.4525C14.5942 19.1529 15.2852 18.8132 15.975 18.4908L16.5506 15.2374C17.544 16.5412 18.9988 17.3125 20.5625 17.3125H22L20.8554 16.4775ZM8.86984 18.2509H8.86756C7.80691 18.2509 6.96875 19.0918 6.96875 20.125C6.96875 21.1591 7.80966 22 8.84375 22H9.09369C9.19103 21.9492 13.0633 19.9282 12.966 19.9789C11.2785 19.1514 9.36303 18.2831 8.86984 18.2509Z" fill="#171516"/>
</g>
<defs>
<clipPath id="clip0_64_189">
<rect width="16" height="16" fill="white" transform="translate(6 6)"/>
</clipPath>
</defs>
</svg>
