<svg width="62" height="72" viewBox="0 0 62 72" fill="none" xmlns="http://www.w3.org/2000/svg">
<path d="M30.5601 68.1264L31 69L31.4399 68.1264L35.3985 60.2644C49.8818 58.1512 61 45.7606 61 30.7911C61 14.3379 47.5686 1 31 1C14.4314 1 1 14.3379 1 30.7911C1 45.7606 12.1181 58.1512 26.6015 60.2644L30.5601 68.1264Z" fill="#CDA462" stroke="#171516"/>
<path d="M34.526 24.5804C34.0655 24.126 33.5221 23.7607 32.9003 23.4833L32.9002 23.4832C32.2595 23.1975 31.5616 23.058 30.8135 23.058H29.2094H26.3621H26.0622L24.3131 21.5H30.4089C31.3051 21.5 32.14 21.6003 32.9154 21.7976L32.9155 21.7976C33.6988 21.9968 34.4125 22.2685 35.0581 22.61C36.639 23.4811 37.6801 24.6851 38.2164 26.2257L38.2165 26.2258C38.3327 26.5596 38.5 27.2383 38.5 28.2051C38.5 28.9734 38.3745 29.4761 38.2206 29.8855L38.2205 29.8854L38.2175 29.8938C37.9484 30.6506 37.5497 31.3304 37.0209 31.9362C36.4918 32.5412 35.8391 33.0587 35.0561 33.4862L35.056 33.4861L35.0468 33.4914C35.0224 33.5054 34.9807 33.5264 34.9169 33.5586L34.9151 33.5595L34.9134 33.5604C34.8603 33.5872 34.7858 33.6248 34.7284 33.659L34.3039 33.9122L34.5522 34.3396L38.1312 40.5H35.7694L34.526 24.5804ZM34.526 24.5804C34.5259 24.5803 34.5258 24.5802 34.5257 24.5801L34.1748 24.9363L34.526 24.5805L34.526 24.5804ZM26.3307 40.5H25.8307V41H26.3307V40.5ZM23.5 41V40.5H23V41H23.5ZM35.626 26.1617L35.1711 26.3693L35.6261 26.1619C35.6261 26.1618 35.626 26.1618 35.626 26.1617ZM35.6247 29.9232C35.6247 29.9232 35.6247 29.9232 35.6248 29.9232L35.1711 29.7128L35.6247 29.9232ZM34.5298 31.498L34.1748 31.1459L34.5297 31.4981C34.5297 31.4981 34.5298 31.4981 34.5298 31.498ZM32.6966 32.1554L32.9003 32.612C32.9004 32.612 32.9004 32.612 32.9005 32.612L32.6966 32.1554ZM25.8307 30.0108L26.3307 29.4495V28.6978L25.8307 29.2591V30.0108ZM23.3733 32.7694L23.5 32.6273V32.5377V32.4369H23L23.1132 32.5377L23.3733 32.7694Z" fill="#171516" stroke="#171516"/>
</svg>
